<?xml version="1.0" encoding="utf-8"?>
<!-- Generator: Adobe Illustrator 25.4.1, SVG Export Plug-In . SVG Version: 6.00 Build 0)  -->
<svg version="1.1" id="Capa_1" xmlns="http://www.w3.org/2000/svg" xmlns:xlink="http://www.w3.org/1999/xlink" x="0px" y="0px"
	 viewBox="0 0 249.1 281.9" style="enable-background:new 0 0 249.1 281.9;" xml:space="preserve">
<style type="text/css">
	.st0{fill:#434041;}
	.st1{fill:#9FD3D7;}
	.st2{opacity:0.5;fill:#FFFFFF;enable-background:new    ;}
	.st3{opacity:0.5;}
	.st4{fill:#FFFFFF;}
	.st5{opacity:0.8;}
	.st6{fill:#737277;}
	.st7{fill:#F19800;}
	.st8{fill:#525154;}
</style>
<g id="Paquete_de_vectores:_motivo_de_puntos_15">
</g>
<g id="Paquete_de_vectores:_motivo_de_puntos_15_1_">
</g>
<g id="Paquete_de_vectores:_motivo_de_puntos_03">
</g>
<rect x="147" y="154.5" transform="matrix(0.7762 -0.6305 0.6305 0.7762 -73.2279 136.4001)" width="17" height="33.6"/>
<path class="st0" d="M20.7,151.7c32.4,39.9,91.1,45.9,130.9,13.6c39.9-32.4,45.9-91.1,13.6-130.9C132.9-5.5,74.1-11.5,34.3,20.8
	S-11.6,111.9,20.7,151.7z M30.4,143.9C2.3,109.4,7.6,58.5,42.1,30.5C76.6,2.4,127.5,7.7,155.5,42.2c28.1,34.5,22.8,85.4-11.7,113.4
	C109.3,183.7,58.4,178.4,30.4,143.9z"/>
<g>
	<path class="st1" d="M30.4,143.8c28,34.5,78.9,39.7,113.4,11.7s39.7-78.9,11.7-113.4S76.6,2.4,42.1,30.4S2.3,109.3,30.4,143.8z"/>
	<g>
		<path class="st2" d="M49,37.1c24.5-19.9,52.5-26.1,62.4-13.9c10,12.2-1.9,38.3-26.4,58.2s-52.5,26.1-62.4,13.9
			C12.6,83.1,24.5,57,49,37.1z"/>
		<g class="st3">
			<g>
				<g>
					<path class="st4" d="M68.6,152.2c7.4,3.7,15.6,5.9,23.8,6.6c16.4,1.4,33.2-3.8,45.9-14.2c12.8-10.2,21.3-25.6,23.3-42
						c1-8.2,0.5-16.6-1.6-24.7c-2-8.1-5.8-15.8-10.7-22.7c5.8,6.3,10.2,13.9,13,22.1s3.8,17,3.1,25.7c-0.7,8.7-3.2,17.3-7.3,25.1
						c-4.2,7.8-9.9,14.7-16.7,20.3c-6.8,5.5-14.7,9.7-23.2,12.1c-8.4,2.4-17.3,3.1-26,2s-17.1-3.9-24.6-8.3
						c-7.4-4.4-13.9-10.3-18.9-17.2C54.4,143.2,61.2,148.5,68.6,152.2z"/>
				</g>
			</g>
			<g>
				<g>
					<path class="st4" d="M78.7,144.5c5.9,2.9,12.3,4.6,18.8,5.1c12.9,1,26-3.1,35.9-11.2c10-8.1,16.6-20,18.3-32.9
						c0.9-6.4,0.5-13-1.1-19.4c-1.5-6.4-4.4-12.5-8.2-18c4.7,4.9,8.2,10.9,10.5,17.4c2.2,6.5,3.2,13.5,2.6,20.4
						c-0.5,6.9-2.6,13.8-5.8,20c-3.2,6.1-7.8,11.7-13.2,16.1c-5.5,4.4-11.8,7.8-18.6,9.7c-6.8,1.8-13.9,2.4-20.8,1.5
						s-13.6-3.2-19.5-6.7c-5.8-3.5-11-8.3-14.8-13.8C67.4,137.6,72.8,141.7,78.7,144.5z"/>
				</g>
			</g>
		</g>
		<g class="st5">
			<path class="st4" d="M101.1,30.7c6.5-5.2,16-4.3,21.2,2.2s4.3,16-2.2,21.2c-6.5,5.2-16,4.3-21.2-2.2
				C93.6,45.5,94.6,36,101.1,30.7z"/>
			<path class="st4" d="M134.5,42.2c2.9-2.3,7.1-1.9,9.4,1s1.9,7.1-1,9.4s-7.1,1.9-9.4-1C131.2,48.7,131.6,44.6,134.5,42.2z"/>
		</g>
	</g>
</g>
<g>
	<path class="st0" d="M153.3,188.4c-3-4.1-3.6-8.6-1.2-10.2c3.9-2.6,7.5-5.6,10.9-8.9c2-2,6.3-0.5,9.7,3.3
		c24.5,27.6,49,55.3,73.6,83c3.4,3.9,3.9,9.5,1,12.3c-4.9,4.7-10.3,9.1-15.9,13c-3.4,2.4-8.8,0.7-11.8-3.4
		C197.4,247.8,175.3,218.1,153.3,188.4z"/>
	<path class="st6" d="M165.9,179.3c-0.9-1.1-0.8-2.7,0.3-3.6l0,0c1.1-0.9,2.7-0.8,3.6,0.3l72.5,82.8c0.9,1.1,0.8,2.7-0.3,3.6l0,0
		c-1.1,0.9-2.7,0.8-3.6-0.3L165.9,179.3z"/>
</g>
<rect x="-904.2" y="-25.8" class="st7" width="425.2" height="425.2"/>
<g>
	<rect x="-733.1" y="184.5" transform="matrix(0.6305 -0.7762 0.7762 0.6305 -414.7179 -476.2191)" width="51.1" height="25.9"/>
	<path class="st0" d="M-577.4,37.3C-617.2,5-675.9,11-708.3,50.9c-32.3,39.8-26.3,98.5,13.6,130.9c39.8,32.3,98.5,26.3,130.9-13.6
		C-531.5,128.4-537.6,69.7-577.4,37.3z M-686.9,172.2c-34.5-28-39.8-78.9-11.7-113.4c28-34.5,78.9-39.8,113.4-11.7
		c34.5,28,39.8,78.9,11.7,113.4C-601.5,194.9-652.4,200.2-686.9,172.2z"/>
	<g>
		<path class="st1" d="M-585.2,46.9c-34.5-28-85.4-22.8-113.4,11.7S-721.4,144-686.9,172s85.4,22.8,113.4-11.7
			C-545.4,125.9-550.7,75-585.2,46.9z"/>
		<g>
			<path class="st2" d="M-565.7,111.8c-9.9,12.2-37.9,6-62.4-13.9s-36.4-46-26.4-58.2c9.9-12.2,37.9-6,62.4,13.9
				C-567.6,73.5-555.7,99.6-565.7,111.8z"/>
			<g class="st3">
				<g>
					<g>
						<path class="st4" d="M-591.8,153.5c-5,6.9-11.5,12.8-18.9,17.2c-7.5,4.4-15.9,7.2-24.6,8.3s-17.6,0.4-26-2
							c-8.5-2.4-16.4-6.6-23.2-12.1c-6.8-5.6-12.5-12.5-16.7-20.3c-4.1-7.8-6.6-16.4-7.3-25.1c-0.7-8.7,0.3-17.5,3.1-25.7
							s7.2-15.8,13-22.1c-4.9,6.9-8.7,14.6-10.7,22.7c-2.1,8.1-2.6,16.5-1.6,24.7c2,16.4,10.5,31.8,23.3,42
							c12.7,10.4,29.5,15.6,45.9,14.2c8.2-0.7,16.4-2.9,23.8-6.6C-604.3,165-597.5,159.8-591.8,153.5z"/>
					</g>
				</g>
				<g>
					<g>
						<path class="st4" d="M-605.9,149.3c-3.8,5.5-9,10.3-14.8,13.8c-5.9,3.5-12.6,5.8-19.5,6.7c-6.9,0.9-14,0.3-20.8-1.5
							c-6.8-1.9-13.1-5.3-18.6-9.7c-5.4-4.4-10-10-13.2-16.1c-3.2-6.2-5.3-13.1-5.8-20c-0.6-6.9,0.4-13.9,2.6-20.4
							c2.3-6.5,5.8-12.5,10.5-17.4c-3.8,5.5-6.7,11.6-8.2,18c-1.6,6.4-2,13-1.1,19.4c1.7,12.9,8.3,24.8,18.3,32.9
							c9.9,8.1,23,12.2,35.9,11.2c6.5-0.5,12.9-2.2,18.8-5.1C-615.9,158.2-610.5,154.2-605.9,149.3z"/>
					</g>
				</g>
			</g>
			<g class="st5">
				<path class="st4" d="M-642,68.5c-5.2,6.5-14.7,7.4-21.2,2.2c-6.5-5.2-7.4-14.7-2.2-21.2s14.7-7.4,21.2-2.2
					C-637.7,52.5-636.7,62-642,68.5z"/>
				<path class="st4" d="M-676.6,68.1c-2.3,2.9-6.5,3.3-9.4,1s-3.3-6.5-1-9.4s6.5-3.3,9.4-1C-674.7,61.1-674.3,65.3-676.6,68.1z"/>
			</g>
		</g>
	</g>
	<g>
		<path class="st0" d="M-804.8,358.8c-4.6,6.3-12.8,8.8-18,5.2c-8.6-5.9-16.7-12.5-24.2-19.7c-4.5-4.3-3.7-12.8,1.5-18.7
			c37.3-42.1,74.6-84.2,111.9-126.2c5.2-5.8,11.7-8,14.8-5c5.2,5,10.7,9.5,16.6,13.5c3.5,2.4,2.7,9.2-1.9,15.5
			C-737.7,268.6-771.2,313.7-804.8,358.8z"/>
		<path class="st6" d="M-833.5,335.5c-1.4,1.6-3.9,1.8-5.5,0.4l0,0c-1.6-1.4-1.8-3.9-0.4-5.5l110.1-125.8c1.4-1.6,3.9-1.8,5.5-0.4
			l0,0c1.6,1.4,1.8,3.9,0.4,5.5L-833.5,335.5z"/>
	</g>
</g>
<g>
	<g>
		<g>
			<path class="st8" d="M-700.3,292.9h6.2v2.2c0,2.1,0.3,3.5,0.8,4.2s1.4,1.1,2.7,1.1s2.3-0.3,3-1s1-1.7,1-3c0-1-0.2-1.9-0.7-2.6
				s-1.5-1.6-3.1-2.8l-3.2-2.3c-2.8-1.9-4.5-3.5-5.3-4.7c-0.7-1.2-1.1-2.8-1.1-4.7c0-2.8,0.8-5,2.5-6.6s4-2.4,6.9-2.4
				c3.1,0,5.5,0.8,7.1,2.5c1.7,1.7,2.5,4.1,2.5,7.3c0,0.3,0,0.6,0,0.7c0,0.2,0,0.3,0,0.5h-5.9v-0.9c0-1.8-0.3-3.1-0.9-3.9
				c-0.6-0.8-1.6-1.2-2.9-1.2c-1,0-1.8,0.3-2.4,0.9c-0.6,0.6-0.9,1.4-0.9,2.4c0,1.4,1.3,3,3.8,4.7h0.1l3.4,2.3
				c2.4,1.6,4.1,3.2,5,4.6s1.3,3.3,1.3,5.5c0,3-0.9,5.4-2.6,7c-1.7,1.7-4.2,2.5-7.5,2.5c-3.4,0-5.9-0.9-7.5-2.6s-2.5-4.4-2.5-8
				c0-0.4,0-1,0.1-1.9v0.2H-700.3z"/>
			<path class="st8" d="M-675.2,304.6v-33.5h17.2v5.6h-11v7.7h10.2v5.3H-669v9.2h11.3v5.7L-675.2,304.6L-675.2,304.6z"/>
			<path class="st8" d="M-655.6,304.6l7.5-33.5h8.4l7.6,33.5h-6.7l-1.7-8.4h-7.2l-1.6,8.4H-655.6z M-646.7,291.2h5.3l-2.7-14
				L-646.7,291.2z"/>
			<path class="st8" d="M-628.8,304.6v-33.5h11.2c3.4,0,5.8,0.7,7.3,2.1s2.2,3.6,2.2,6.7c0,2.2-0.4,3.9-1.2,5.1
				c-0.8,1.3-2,2-3.5,2.2c3,0.8,4.5,3.3,4.6,7.5c0,0.2,0,0.3,0,0.4l0.2,4.4c0.1,1.3,0.2,2.3,0.5,3c0.3,0.8,0.7,1.4,1.2,2h-7.4
				c-0.2-0.6-0.3-1.2-0.4-2c-0.1-0.8-0.1-1.8-0.2-3.2l-0.1-3.5v-0.9c0-1.9-0.4-3.3-1.2-4s-2.5-1.1-5-1.1h-2.1v14.7L-628.8,304.6
				L-628.8,304.6z M-622.8,285.3h3.6c1.8,0,3.1-0.4,3.8-1.1c0.7-0.7,1.1-2,1.1-3.9c0-1.7-0.4-2.8-1.2-3.5s-2.2-1-4.2-1h-3.1
				L-622.8,285.3L-622.8,285.3z"/>
			<path class="st8" d="M-589.8,292.7h6.1c0,0.1,0,0.4,0,0.6c0,0.3,0,0.5,0,0.7c0,3.9-0.8,6.7-2.4,8.6c-1.6,1.9-4.1,2.8-7.5,2.8
				c-1.6,0-3-0.2-4.1-0.6c-1.1-0.4-2.1-1.1-3-1.9c-1.1-1.2-1.9-2.8-2.4-4.8s-0.7-5.6-0.7-10.6c0-3.4,0.1-6.2,0.4-8.2
				s0.7-3.6,1.3-4.6c0.9-1.5,2-2.6,3.3-3.3c1.3-0.7,3-1,5.1-1c3.4,0,5.9,0.9,7.4,2.7c1.5,1.8,2.3,4.6,2.3,8.5h-6v-0.9
				c0-1.8-0.3-3.2-0.9-4.1c-0.6-0.9-1.5-1.3-2.7-1.3c-1.5,0-2.5,0.6-3.1,1.8c-0.5,1.2-0.8,4.6-0.8,10.2c0,6,0.3,9.7,0.8,11
				s1.5,2,3,2c1.4,0,2.4-0.5,2.9-1.5c0.6-1,0.8-2.9,0.8-5.7v-0.4H-589.8z"/>
			<path class="st8" d="M-578.7,304.6v-33.5h6.2v13.1h8.5v-13.1h6.2v33.5h-6.2v-15.2h-8.5v15.2H-578.7z"/>
		</g>
	</g>
	<g>
		<g>
			<path class="st8" d="M-694.6,320.4l-2.4-10.8h2.2l1.6,8.7l1.5-8.7h2.1l-2.3,10.8H-694.6z"/>
			<path class="st8" d="M-684.8,320.4v-10.8h5.6v1.8h-3.6v2.5h3.3v1.7h-3.3v3h3.6v1.8H-684.8z"/>
			<path class="st8" d="M-669.8,316.6h2c0,0,0,0.1,0,0.2s0,0.2,0,0.2c0,1.3-0.3,2.2-0.8,2.8c-0.5,0.6-1.3,0.9-2.4,0.9
				c-0.5,0-1-0.1-1.3-0.2c-0.4-0.1-0.7-0.3-1-0.6c-0.4-0.4-0.6-0.9-0.8-1.5c-0.2-0.7-0.2-1.8-0.2-3.4c0-1.1,0-2,0.1-2.7
				s0.2-1.2,0.4-1.5c0.3-0.5,0.7-0.9,1.1-1.1c0.4-0.2,1-0.3,1.7-0.3c1.1,0,1.9,0.3,2.4,0.9s0.8,1.5,0.8,2.8h-2v-0.4
				c0-0.6-0.1-1-0.3-1.3s-0.5-0.4-0.9-0.4c-0.5,0-0.8,0.2-1,0.6s-0.3,1.5-0.3,3.3c0,2,0.1,3.1,0.3,3.6c0.2,0.4,0.5,0.6,1,0.6
				s0.8-0.2,0.9-0.5c0.2-0.3,0.3-0.9,0.3-1.8V316.6z"/>
			<path class="st8" d="M-661.1,320.4v-9.1h-2.3v-1.8h6.7v1.8h-2.3v9.1H-661.1z"/>
			<path class="st8" d="M-652.3,315c0-1.1,0.1-2.1,0.2-2.8c0.1-0.7,0.3-1.2,0.5-1.6c0.3-0.5,0.7-0.8,1.1-1.1c0.4-0.2,1-0.3,1.7-0.3
				s1.3,0.1,1.7,0.3c0.4,0.2,0.8,0.6,1.1,1.1c0.2,0.4,0.4,0.9,0.5,1.6s0.2,1.6,0.2,2.7s-0.1,2.1-0.2,2.7s-0.3,1.2-0.5,1.6
				c-0.3,0.5-0.7,0.8-1.1,1.1c-0.4,0.2-1,0.3-1.7,0.3s-1.3-0.1-1.7-0.3c-0.4-0.2-0.8-0.6-1.1-1.1c-0.2-0.3-0.4-0.9-0.5-1.6
				C-652.2,317.1-652.3,316.2-652.3,315z M-650.2,315c0,1.8,0.1,2.9,0.3,3.4s0.6,0.7,1.2,0.7c0.6,0,0.9-0.2,1.1-0.7
				c0.2-0.5,0.3-1.6,0.3-3.4s-0.1-2.9-0.3-3.4s-0.6-0.7-1.1-0.7c-0.6,0-0.9,0.2-1.1,0.7C-650.1,312.1-650.2,313.2-650.2,315z"/>
			<path class="st8" d="M-640,320.4v-10.8h3.6c1.1,0,1.9,0.2,2.4,0.7c0.5,0.4,0.7,1.2,0.7,2.2c0,0.7-0.1,1.3-0.4,1.7
				c-0.3,0.4-0.6,0.6-1.1,0.7c1,0.3,1.5,1.1,1.5,2.4c0,0.1,0,0.1,0,0.1l0.1,1.4c0,0.4,0.1,0.7,0.2,1c0.1,0.2,0.2,0.5,0.4,0.6h-2.4
				c-0.1-0.2-0.1-0.4-0.1-0.6s0-0.6-0.1-1v-1.1v-0.3c0-0.6-0.1-1.1-0.4-1.3c-0.3-0.2-0.8-0.4-1.6-0.4h-0.7v4.8h-2.1V320.4z
				 M-638,314.2h1.2c0.6,0,1-0.1,1.2-0.4c0.2-0.2,0.3-0.7,0.3-1.3c0-0.5-0.1-0.9-0.4-1.1c-0.2-0.2-0.7-0.3-1.4-0.3h-1v3.1H-638z"/>
			<path class="st8" d="M-620.8,320.4v-10.8h3.2c0.7,0,1.2,0.1,1.6,0.2c0.4,0.1,0.7,0.3,1,0.5c0.4,0.4,0.6,0.8,0.8,1.4
				c0.2,0.6,0.2,1.4,0.2,2.6c0,1.5-0.1,2.6-0.2,3.3c-0.1,0.6-0.3,1.2-0.5,1.6s-0.6,0.8-1,0.9c-0.4,0.2-1.2,0.3-2.3,0.3H-620.8z
				 M-618.9,318.8h0.9c0.5,0,0.8,0,1-0.1s0.3-0.2,0.4-0.3c0.2-0.3,0.3-0.7,0.4-1.2c0.1-0.5,0.1-1.3,0.1-2.4s0-1.8-0.1-2.3
				c-0.1-0.5-0.3-0.8-0.5-1.1c-0.1-0.1-0.3-0.2-0.5-0.3c-0.2,0-0.5-0.1-0.9-0.1h-0.9L-618.9,318.8L-618.9,318.8z"/>
			<path class="st8" d="M-608.8,320.4v-10.8h5.6v1.8h-3.6v2.5h3.3v1.7h-3.3v3h3.6v1.8H-608.8z"/>
			<path class="st8" d="M-598.2,316.6h2v0.7c0,0.7,0.1,1.1,0.2,1.4c0.2,0.2,0.5,0.4,0.9,0.4c0.4,0,0.8-0.1,1-0.3
				c0.2-0.2,0.3-0.5,0.3-1c0-0.3-0.1-0.6-0.2-0.8c-0.2-0.2-0.5-0.5-1-0.9l-1-0.7c-0.9-0.6-1.5-1.1-1.7-1.5s-0.4-0.9-0.4-1.5
				c0-0.9,0.3-1.6,0.8-2.1s1.3-0.8,2.2-0.8c1,0,1.8,0.3,2.3,0.8s0.8,1.3,0.8,2.4c0,0.1,0,0.2,0,0.2c0,0.1,0,0.1,0,0.1h-1.9v-0.3
				c0-0.6-0.1-1-0.3-1.3s-0.5-0.4-1-0.4c-0.3,0-0.6,0.1-0.8,0.3c-0.2,0.2-0.3,0.5-0.3,0.8c0,0.5,0.4,1,1.2,1.5l0,0l1.1,0.8
				c0.8,0.5,1.3,1,1.6,1.5s0.4,1.1,0.4,1.8c0,1-0.3,1.7-0.8,2.3c-0.6,0.5-1.4,0.8-2.4,0.8c-1.1,0-1.9-0.3-2.4-0.8
				c-0.5-0.6-0.8-1.4-0.8-2.6C-598.3,317.1-598.2,316.9-598.2,316.6L-598.2,316.6z"/>
			<path class="st8" d="M-586.5,320.4v-10.8h2v10.8H-586.5z"/>
			<path class="st8" d="M-573.7,320.4l-0.1-1.2c-0.2,0.5-0.5,0.9-0.8,1.1c-0.4,0.2-0.9,0.3-1.5,0.3c-1.1,0-1.9-0.4-2.4-1.3
				s-0.7-2.4-0.7-4.7c0-1.1,0.1-1.9,0.2-2.6c0.1-0.6,0.3-1.1,0.5-1.5c0.3-0.4,0.7-0.8,1.1-1c0.5-0.2,1-0.3,1.7-0.3
				c1.2,0,2,0.3,2.6,0.8c0.6,0.5,0.8,1.4,0.8,2.6v0.3h-1.9v-0.1c0-0.6-0.1-1.1-0.4-1.5c-0.2-0.3-0.6-0.5-1.1-0.5
				c-0.6,0-1,0.2-1.2,0.7s-0.3,1.6-0.3,3.6c0,1.5,0.1,2.6,0.3,3.1c0.2,0.5,0.6,0.8,1.1,0.8s0.9-0.2,1.1-0.5c0.2-0.4,0.3-1,0.3-1.9
				v-0.4h-1.4v-1.7h3.3v5.9L-573.7,320.4L-573.7,320.4z"/>
			<path class="st8" d="M-567,320.4v-10.8h2.1l2.8,7.6l-0.1-7.6h1.9v10.8h-2.1l-2.8-7.6l0.1,7.6H-567z"/>
		</g>
	</g>
</g>
</svg>
