<?xml version="1.0" encoding="utf-8"?>
<!-- Generator: Adobe Illustrator 25.4.1, SVG Export Plug-In . SVG Version: 6.00 Build 0)  -->
<svg version="1.1" id="Layer_2_00000120519223585702451540000006968771831968122805_"
	 xmlns="http://www.w3.org/2000/svg" xmlns:xlink="http://www.w3.org/1999/xlink" x="0px" y="0px" viewBox="0 0 148.2 149.7"
	 style="enable-background:new 0 0 148.2 149.7;" xml:space="preserve">
<style type="text/css">
	.st0{fill:#F7F8F8;}
	.st1{fill:#ED9E00;}
	.st2{fill:#F8BF39;}
	.st3{fill:none;stroke:#1D1D1B;stroke-width:2;}
</style>
<g>
	<g>
		<path class="st0" d="M89.7,126.8l-30.9,0c-1.2,0-2.2,1.1-2.2,2.6c0,1.4,1,2.6,2.2,2.6l30.9-0.1c1.2,0,2.2-1.1,2.2-2.5
			C91.9,128,90.9,126.8,89.7,126.8L89.7,126.8z"/>
		<path class="st0" d="M89.7,134L58.7,134c-1.2,0-2.2,1.2-2.2,2.6c0,1.4,1,2.6,2.2,2.6H62l3.3,6.8c0,0,1.6,2.2,2.4,2.4
			c0.8,0.2,10.3,1.3,13.3,0c0,0,1.4-0.4,2.6-2.6c0.9-1.7,2.7-5.1,3.5-6.6h2.5c1.2,0,2.2-1.2,2.2-2.6C91.9,135.1,90.9,134,89.7,134z"
			/>
		<path class="st0" d="M89.7,119.7l-31,0c-1.2,0-2.2,1.2-2.2,2.6c0,1.4,1,2.6,2.2,2.5l30.9,0c1.2,0,2.2-1.2,2.2-2.6
			C91.9,120.8,90.9,119.7,89.7,119.7L89.7,119.7z"/>
		<g>
			<path class="st1" d="M131.4,95.2c-2.6-1.3-5.2-2.6-7.8-3.9c-1.5-0.8-3.6-0.5-4.5,1.2c0,0,0,0,0,0c-0.8,1.5-0.5,3.6,1.2,4.5
				c2.6,1.3,5.2,2.6,7.8,3.9c1.5,0.8,3.7,0.4,4.5-1.2c0.3-0.6,0.5-1.2,0.4-1.9C133,96.7,132.5,95.7,131.4,95.2L131.4,95.2z"/>
			<path class="st1" d="M29.1,92.5c-0.8-1.7-3-1.9-4.5-1.2c-2.6,1.3-5.2,2.6-7.8,3.9c-1.1,0.5-1.5,1.6-1.6,2.6
				c0,0.7,0.1,1.3,0.4,1.9c0.8,1.6,3,2,4.5,1.2c2.6-1.3,5.2-2.6,7.8-3.9C29.6,96.2,29.9,94.1,29.1,92.5
				C29.1,92.6,29.1,92.5,29.1,92.5z"/>
			<path class="st1" d="M133.9,53.9c-2.9,0.6-5.7,1.2-8.6,1.8c-0.8,0.2-1.4,0.7-1.8,1.3c-0.2,0.3-0.3,0.6-0.4,1
				c-0.1,0.6-0.2,1.2,0,1.7c0,0,0,0.1,0,0.1c0.3,1.6,1.5,2.3,2.8,2.4c0.4,0.1,0.8,0,1.2-0.1c2.8-0.6,5.7-1.3,8.5-1.9
				C139.8,59.3,138,53.1,133.9,53.9L133.9,53.9z"/>
			<path class="st1" d="M25.1,59.4c0.3-1.5-0.4-3.1-2.3-3.5c-2.8-0.6-5.7-1.3-8.5-1.9c-1.7-0.4-3.6,0.5-4,2.3c0,0,0,0.1,0,0.1
				c-0.4,1.7,0.5,3.6,2.3,4c2.8,0.6,5.7,1.2,8.6,1.8C23.3,62.7,24.8,61.1,25.1,59.4z"/>
			<path class="st1" d="M115.3,19.7C115.3,19.7,115.3,19.7,115.3,19.7c-1.3-1.1-3.5-1.5-4.7,0c-1.8,2.3-3.6,4.6-5.4,6.8
				c-1.1,1.4-1.3,3.3,0,4.6c0.1,0.1,0.2,0.1,0.2,0.2c1.2,1,3.3,1.1,4.4-0.2c1.8-2.3,3.7-4.5,5.5-6.8
				C116.4,23.1,116.8,20.9,115.3,19.7L115.3,19.7z"/>
			<path class="st1" d="M42.9,26.6c-1.8-2.3-3.6-4.6-5.4-6.8c-1.2-1.5-3.4-1-4.6,0c0,0,0,0-0.1,0.1c-1.5,1.2-1,3.4,0,4.6
				c1.8,2.3,3.7,4.5,5.5,6.8c0.6,0.8,1.6,1,2.5,0.9c0.8-0.1,1.6-0.4,2.1-1c0.5-0.6,0.8-1.2,0.9-1.8C44,28.4,43.6,27.4,42.9,26.6
				L42.9,26.6z"/>
			<path class="st1" d="M74.1,5.1C74.1,5.1,74.1,5.1,74.1,5.1c-1.8,0-3.3,1.5-3.3,3.2c0,2.9,0,5.8,0,8.7c0,1.8,1.5,3.3,3.3,3.3
				c0,0,0,0,0.1,0c0.9,0,1.7-0.3,2.2-0.8c0.7-0.5,1.1-1.3,1.1-2.4c0-2.9,0-5.8,0-8.7C77.4,6.6,75.9,5.1,74.1,5.1L74.1,5.1z"/>
		</g>
		<g>
			<path class="st2" d="M84.7,74.7c0.3-0.6,0.4-1.1,0.2-1.4c-0.2-0.3-0.4-0.5-0.6-0.5c-0.5,0-1.1,0.6-1.4,1.2
				c-0.4,0.9-0.4,2-0.2,2.9C83.7,76.3,84.4,75.5,84.7,74.7L84.7,74.7z"/>
			<path class="st2" d="M71.4,73.5c0.2-0.5,0.3-1.3,0.1-1.7c0-0.1-0.1-0.1-0.2-0.1c-0.1,0-0.2,0-0.5,0.1c-0.6,0.2-1.1,0.8-1.4,1.4
				c-0.6,1.2-0.6,2.4-0.2,3.4c0.1-0.1,0.2-0.2,0.2-0.3C70.2,75.4,71,74.5,71.4,73.5L71.4,73.5z"/>
			<path class="st2" d="M61.6,87.3c4.2,9,7.8,19.1,11.1,30.7h4.7c3-10.9,6.4-20.5,10.2-29.1c-3.1-1.4-5.5-4.1-6.8-7.6
				c-2.1,0.9-4.3,1.2-6.6,1c-1.9-0.2-3.6-0.7-4.9-1.4C68.1,82.4,65.1,85.6,61.6,87.3L61.6,87.3z"/>
			<path class="st2" d="M54.6,81.6c-0.1,0-0.1,0-0.2,0c-0.4,0-0.8,0.2-0.9,0.5c-0.2,0.7,0.2,1.3,0.5,1.7c0.8,1,2.2,1.7,3.3,1.7
				c0.1,0,0.2,0,0.3,0c-0.2-0.5-0.5-1-0.8-1.5C56.2,82.9,55.5,81.8,54.6,81.6L54.6,81.6z"/>
			<path class="st2" d="M94.5,82.5L94.5,82.5c-0.1,0-0.4,0.1-1.2,1.3l-0.1,0.1c-0.5,0.9-0.9,1.8-1.4,2.8c1-0.1,1.9-0.5,2.4-1
				c0.5-0.5,0.7-1.1,0.6-1.9C94.8,82.9,94.6,82.6,94.5,82.5z"/>
			<path class="st2" d="M74,27.9c-23,0-41.7,18.7-41.6,41.8c0,16.8,10,31.2,24.3,37.8v8.1c0,1.4,1.1,2.5,2.5,2.5h10.4
				c-3.2-11.3-6.8-21.1-10.8-29.8c-2.3,0.5-4.4-0.1-6.2-1.7c-1.2-1.1-2.3-2.9-2.2-4.7c0.1-1.1,0.7-2,1.6-2.6
				c0.7-0.4,1.4-0.7,2.2-0.7c2.3,0,4.1,2.1,5,3.9c0.3,0.7,0.7,1.3,1,2c2.4-1.1,4.8-3.1,6.8-5.6c-0.6-0.8-0.9-1.7-1.1-2.8
				c-0.2-1.8,0.6-4.4,2-6c1.5-1.7,3.3-2,5-0.8c0.9,0.7,1.5,1.5,1.6,2.5c0.3,2.3-1.7,4.7-3.1,6.4c-0.1,0.1-0.1,0.2-0.2,0.2
				c0.4,0.2,0.8,0.3,1.3,0.4c2.5,0.5,4.8,0.5,6.4-0.2c0.3-0.1,0.6-0.2,0.9-0.4c-0.1-0.6-0.2-1.2-0.3-1.8c-0.2-2.6,0.5-4.5,2.2-5.9
				c0.7-0.6,1.6-0.9,2.5-0.9c0.9,0,1.6,0.3,2.2,0.9c1,1,1.4,2.2,1.3,3.4c-0.2,2.5-2.5,4.4-3.5,5.1c-0.3,0.2-0.6,0.4-0.9,0.6
				c0.8,2.1,2.3,5.2,5.3,6.4c0.6-1.3,1.2-2.6,1.9-3.8c0-0.1,0.1-0.2,0.2-0.2c0.5-0.8,2-2.7,3.7-2.7c0.6,0,1.2,0.2,1.8,0.7
				c1.7,1.5,1.8,4,1.1,5.8c-0.8,2.3-3.1,3.6-6,3.7c-0.3,0-0.6,0-0.9,0c-3.8,8.3-7.1,17.6-10.1,28.3h8.7c1.4,0,2.5-1.1,2.5-2.5v-8.1
				c14.3-6.6,24.2-21.1,24.2-37.9C115.8,46.4,97.1,27.8,74,27.9L74,27.9z"/>
		</g>
	</g>
	<g>
		<path class="st3" d="M89.7,126.8l-30.9,0c-1.2,0-2.2,1.1-2.2,2.6c0,1.4,1,2.6,2.2,2.6l30.9-0.1c1.2,0,2.2-1.1,2.2-2.5
			C91.9,128,90.9,126.8,89.7,126.8L89.7,126.8z"/>
		<path class="st3" d="M89.7,134L58.7,134c-1.2,0-2.2,1.2-2.2,2.6c0,1.4,1,2.6,2.2,2.6H62l3.3,6.8c0,0,1.6,2.2,2.4,2.4
			c0.8,0.2,10.3,1.3,13.3,0c0,0,1.4-0.4,2.6-2.6c0.9-1.7,2.7-5.1,3.5-6.6h2.5c1.2,0,2.2-1.2,2.2-2.6C91.9,135.1,90.9,134,89.7,134z"
			/>
		<path class="st3" d="M89.7,119.7l-31,0c-1.2,0-2.2,1.2-2.2,2.6c0,1.4,1,2.6,2.2,2.5l30.9,0c1.2,0,2.2-1.2,2.2-2.6
			C91.9,120.8,90.9,119.7,89.7,119.7L89.7,119.7z"/>
		<g>
			<path class="st3" d="M131.4,95.2c-2.6-1.3-5.2-2.6-7.8-3.9c-1.5-0.8-3.6-0.5-4.5,1.2c0,0,0,0,0,0c-0.8,1.5-0.5,3.6,1.2,4.5
				c2.6,1.3,5.2,2.6,7.8,3.9c1.5,0.8,3.7,0.4,4.5-1.2c0.3-0.6,0.5-1.2,0.4-1.9C133,96.7,132.5,95.7,131.4,95.2L131.4,95.2z"/>
			<path class="st3" d="M29.1,92.5c-0.8-1.7-3-1.9-4.5-1.2c-2.6,1.3-5.2,2.6-7.8,3.9c-1.1,0.5-1.5,1.6-1.6,2.6
				c0,0.7,0.1,1.3,0.4,1.9c0.8,1.6,3,2,4.5,1.2c2.6-1.3,5.2-2.6,7.8-3.9C29.6,96.2,29.9,94.1,29.1,92.5
				C29.1,92.6,29.1,92.5,29.1,92.5z"/>
			<path class="st3" d="M133.9,53.9c-2.9,0.6-5.7,1.2-8.6,1.8c-0.8,0.2-1.4,0.7-1.8,1.3c-0.2,0.3-0.3,0.6-0.4,1
				c-0.1,0.6-0.2,1.2,0,1.7c0,0,0,0.1,0,0.1c0.3,1.6,1.5,2.3,2.8,2.4c0.4,0.1,0.8,0,1.2-0.1c2.8-0.6,5.7-1.3,8.5-1.9
				C139.8,59.3,138,53.1,133.9,53.9L133.9,53.9z"/>
			<path class="st3" d="M25.1,59.4c0.3-1.5-0.4-3.1-2.3-3.5c-2.8-0.6-5.7-1.3-8.5-1.9c-1.7-0.4-3.6,0.5-4,2.3c0,0,0,0.1,0,0.1
				c-0.4,1.7,0.5,3.6,2.3,4c2.8,0.6,5.7,1.2,8.6,1.8C23.3,62.7,24.8,61.1,25.1,59.4z"/>
			<path class="st3" d="M115.3,19.7C115.3,19.7,115.3,19.7,115.3,19.7c-1.3-1.1-3.5-1.5-4.7,0c-1.8,2.3-3.6,4.6-5.4,6.8
				c-1.1,1.4-1.3,3.3,0,4.6c0.1,0.1,0.2,0.1,0.2,0.2c1.2,1,3.3,1.1,4.4-0.2c1.8-2.3,3.7-4.5,5.5-6.8
				C116.4,23.1,116.8,20.9,115.3,19.7L115.3,19.7z"/>
			<path class="st3" d="M42.9,26.6c-1.8-2.3-3.6-4.6-5.4-6.8c-1.2-1.5-3.4-1-4.6,0c0,0,0,0-0.1,0.1c-1.5,1.2-1,3.4,0,4.6
				c1.8,2.3,3.7,4.5,5.5,6.8c0.6,0.8,1.6,1,2.5,0.9c0.8-0.1,1.6-0.4,2.1-1c0.5-0.6,0.8-1.2,0.9-1.8C44,28.4,43.6,27.4,42.9,26.6
				L42.9,26.6z"/>
			<path class="st3" d="M74.1,5.1C74.1,5.1,74.1,5.1,74.1,5.1c-1.8,0-3.3,1.5-3.3,3.2c0,2.9,0,5.8,0,8.7c0,1.8,1.5,3.3,3.3,3.3
				c0,0,0,0,0.1,0c0.9,0,1.7-0.3,2.2-0.8c0.7-0.5,1.1-1.3,1.1-2.4c0-2.9,0-5.8,0-8.7C77.4,6.6,75.9,5.1,74.1,5.1L74.1,5.1z"/>
		</g>
		<g>
			<path class="st3" d="M84.7,74.7c0.3-0.6,0.4-1.1,0.2-1.4c-0.2-0.3-0.4-0.5-0.6-0.5c-0.5,0-1.1,0.6-1.4,1.2
				c-0.4,0.9-0.4,2-0.2,2.9C83.7,76.3,84.4,75.5,84.7,74.7L84.7,74.7z"/>
			<path class="st3" d="M71.4,73.5c0.2-0.5,0.3-1.3,0.1-1.7c0-0.1-0.1-0.1-0.2-0.1c-0.1,0-0.2,0-0.5,0.1c-0.6,0.2-1.1,0.8-1.4,1.4
				c-0.6,1.2-0.6,2.4-0.2,3.4c0.1-0.1,0.2-0.2,0.2-0.3C70.2,75.4,71,74.5,71.4,73.5L71.4,73.5z"/>
			<path class="st3" d="M61.6,87.3c4.2,9,7.8,19.1,11.1,30.7h4.7c3-10.9,6.4-20.5,10.2-29.1c-3.1-1.4-5.5-4.1-6.8-7.6
				c-2.1,0.9-4.3,1.2-6.6,1c-1.9-0.2-3.6-0.7-4.9-1.4C68.1,82.4,65.1,85.6,61.6,87.3L61.6,87.3z"/>
			<path class="st3" d="M54.6,81.6c-0.1,0-0.1,0-0.2,0c-0.4,0-0.8,0.2-0.9,0.5c-0.2,0.7,0.2,1.3,0.5,1.7c0.8,1,2.2,1.7,3.3,1.7
				c0.1,0,0.2,0,0.3,0c-0.2-0.5-0.5-1-0.8-1.5C56.2,82.9,55.5,81.8,54.6,81.6L54.6,81.6z"/>
			<path class="st3" d="M94.5,82.5L94.5,82.5c-0.1,0-0.4,0.1-1.2,1.3l-0.1,0.1c-0.5,0.9-0.9,1.8-1.4,2.8c1-0.1,1.9-0.5,2.4-1
				c0.5-0.5,0.7-1.1,0.6-1.9C94.8,82.9,94.6,82.6,94.5,82.5z"/>
			<path class="st3" d="M74,27.9c-23,0-41.7,18.7-41.6,41.8c0,16.8,10,31.2,24.3,37.8v8.1c0,1.4,1.1,2.5,2.5,2.5h10.4
				c-3.2-11.3-6.8-21.1-10.8-29.8c-2.3,0.5-4.4-0.1-6.2-1.7c-1.2-1.1-2.3-2.9-2.2-4.7c0.1-1.1,0.7-2,1.6-2.6
				c0.7-0.4,1.4-0.7,2.2-0.7c2.3,0,4.1,2.1,5,3.9c0.3,0.7,0.7,1.3,1,2c2.4-1.1,4.8-3.1,6.8-5.6c-0.6-0.8-0.9-1.7-1.1-2.8
				c-0.2-1.8,0.6-4.4,2-6c1.5-1.7,3.3-2,5-0.8c0.9,0.7,1.5,1.5,1.6,2.5c0.3,2.3-1.7,4.7-3.1,6.4c-0.1,0.1-0.1,0.2-0.2,0.2
				c0.4,0.2,0.8,0.3,1.3,0.4c2.5,0.5,4.8,0.5,6.4-0.2c0.3-0.1,0.6-0.2,0.9-0.4c-0.1-0.6-0.2-1.2-0.3-1.8c-0.2-2.6,0.5-4.5,2.2-5.9
				c0.7-0.6,1.6-0.9,2.5-0.9c0.9,0,1.6,0.3,2.2,0.9c1,1,1.4,2.2,1.3,3.4c-0.2,2.5-2.5,4.4-3.5,5.1c-0.3,0.2-0.6,0.4-0.9,0.6
				c0.8,2.1,2.3,5.2,5.3,6.4c0.6-1.3,1.2-2.6,1.9-3.8c0-0.1,0.1-0.2,0.2-0.2c0.5-0.8,2-2.7,3.7-2.7c0.6,0,1.2,0.2,1.8,0.7
				c1.7,1.5,1.8,4,1.1,5.8c-0.8,2.3-3.1,3.6-6,3.7c-0.3,0-0.6,0-0.9,0c-3.8,8.3-7.1,17.6-10.1,28.3h8.7c1.4,0,2.5-1.1,2.5-2.5v-8.1
				c14.3-6.6,24.2-21.1,24.2-37.9C115.8,46.4,97.1,27.8,74,27.9L74,27.9z"/>
		</g>
	</g>
</g>
</svg>
