<?xml version="1.0" encoding="utf-8"?>
<!-- Generator: Adobe Illustrator 25.4.1, SVG Export Plug-In . SVG Version: 6.00 Build 0)  -->
<svg version="1.1" id="Layer_2_00000120519223585702451540000006968771831968122805_"
	 xmlns="http://www.w3.org/2000/svg" xmlns:xlink="http://www.w3.org/1999/xlink" x="0px" y="0px" viewBox="0 0 148.2 149.7"
	 style="enable-background:new 0 0 148.2 149.7;" xml:space="preserve">
<style type="text/css">
	.st0{fill:none;stroke:#FFFFFF;stroke-width:2;}
</style>
<g>
	<g>
		<path d="M89.7,126.8l-30.9,0c-1.2,0-2.2,1.1-2.2,2.6c0,1.4,1,2.6,2.2,2.6l30.9-0.1c1.2,0,2.2-1.1,2.2-2.5
			C91.9,128,90.9,126.8,89.7,126.8L89.7,126.8z"/>
		<path d="M89.7,134L58.7,134c-1.2,0-2.2,1.2-2.2,2.6c0,1.4,1,2.6,2.2,2.6H62l3.3,6.8c0,0,1.6,2.2,2.4,2.4c0.8,0.2,10.3,1.3,13.3,0
			c0,0,1.4-0.4,2.6-2.6c0.9-1.7,2.7-5.1,3.5-6.6h2.5c1.2,0,2.2-1.2,2.2-2.6C91.9,135.1,90.9,134,89.7,134z"/>
		<path d="M89.7,119.7l-31,0c-1.2,0-2.2,1.2-2.2,2.6c0,1.4,1,2.6,2.2,2.5l30.9,0c1.2,0,2.2-1.2,2.2-2.6
			C91.9,120.8,90.9,119.7,89.7,119.7L89.7,119.7z"/>
		<g>
			<path d="M84.7,74.7c0.3-0.6,0.4-1.1,0.2-1.4c-0.2-0.3-0.4-0.5-0.6-0.5c-0.5,0-1.1,0.6-1.4,1.2c-0.4,0.9-0.4,2-0.2,2.9
				C83.7,76.3,84.4,75.5,84.7,74.7L84.7,74.7z"/>
			<path d="M71.4,73.5c0.2-0.5,0.3-1.3,0.1-1.7c0-0.1-0.1-0.1-0.2-0.1c-0.1,0-0.2,0-0.5,0.1c-0.6,0.2-1.1,0.8-1.4,1.4
				c-0.6,1.2-0.6,2.4-0.2,3.4c0.1-0.1,0.2-0.2,0.2-0.3C70.2,75.4,71,74.5,71.4,73.5L71.4,73.5z"/>
			<path d="M61.6,87.3c4.2,9,7.8,19.1,11.1,30.7h4.7c3-10.9,6.4-20.5,10.2-29.1c-3.1-1.4-5.5-4.1-6.8-7.6c-2.1,0.9-4.3,1.2-6.6,1
				c-1.9-0.2-3.6-0.7-4.9-1.4C68.1,82.4,65.1,85.6,61.6,87.3L61.6,87.3z"/>
			<path d="M54.6,81.6c-0.1,0-0.1,0-0.2,0c-0.4,0-0.8,0.2-0.9,0.5c-0.2,0.7,0.2,1.3,0.5,1.7c0.8,1,2.2,1.7,3.3,1.7
				c0.1,0,0.2,0,0.3,0c-0.2-0.5-0.5-1-0.8-1.5C56.2,82.9,55.5,81.8,54.6,81.6L54.6,81.6z"/>
			<path d="M94.5,82.5L94.5,82.5c-0.1,0-0.4,0.1-1.2,1.3l-0.1,0.1c-0.5,0.9-0.9,1.8-1.4,2.8c1-0.1,1.9-0.5,2.4-1
				c0.5-0.5,0.7-1.1,0.6-1.9C94.8,82.9,94.6,82.6,94.5,82.5z"/>
			<path d="M74,27.9c-23,0-41.7,18.7-41.6,41.8c0,16.8,10,31.2,24.3,37.8v8.1c0,1.4,1.1,2.5,2.5,2.5h10.4
				c-3.2-11.3-6.8-21.1-10.8-29.8c-2.3,0.5-4.4-0.1-6.2-1.7c-1.2-1.1-2.3-2.9-2.2-4.7c0.1-1.1,0.7-2,1.6-2.6
				c0.7-0.4,1.4-0.7,2.2-0.7c2.3,0,4.1,2.1,5,3.9c0.3,0.7,0.7,1.3,1,2c2.4-1.1,4.8-3.1,6.8-5.6c-0.6-0.8-0.9-1.7-1.1-2.8
				c-0.2-1.8,0.6-4.4,2-6c1.5-1.7,3.3-2,5-0.8c0.9,0.7,1.5,1.5,1.6,2.5c0.3,2.3-1.7,4.7-3.1,6.4c-0.1,0.1-0.1,0.2-0.2,0.2
				c0.4,0.2,0.8,0.3,1.3,0.4c2.5,0.5,4.8,0.5,6.4-0.2c0.3-0.1,0.6-0.2,0.9-0.4c-0.1-0.6-0.2-1.2-0.3-1.8c-0.2-2.6,0.5-4.5,2.2-5.9
				c0.7-0.6,1.6-0.9,2.5-0.9c0.9,0,1.6,0.3,2.2,0.9c1,1,1.4,2.2,1.3,3.4c-0.2,2.5-2.5,4.4-3.5,5.1c-0.3,0.2-0.6,0.4-0.9,0.6
				c0.8,2.1,2.3,5.2,5.3,6.4c0.6-1.3,1.2-2.6,1.9-3.8c0-0.1,0.1-0.2,0.2-0.2c0.5-0.8,2-2.7,3.7-2.7c0.6,0,1.2,0.2,1.8,0.7
				c1.7,1.5,1.8,4,1.1,5.8c-0.8,2.3-3.1,3.6-6,3.7c-0.3,0-0.6,0-0.9,0c-3.8,8.3-7.1,17.6-10.1,28.3h8.7c1.4,0,2.5-1.1,2.5-2.5v-8.1
				c14.3-6.6,24.2-21.1,24.2-37.9C115.8,46.4,97.1,27.8,74,27.9L74,27.9z"/>
		</g>
	</g>
	<g>
		<path class="st0" d="M89.7,126.8l-30.9,0c-1.2,0-2.2,1.1-2.2,2.6c0,1.4,1,2.6,2.2,2.6l30.9-0.1c1.2,0,2.2-1.1,2.2-2.5
			C91.9,128,90.9,126.8,89.7,126.8L89.7,126.8z"/>
		<path class="st0" d="M89.7,134L58.7,134c-1.2,0-2.2,1.2-2.2,2.6c0,1.4,1,2.6,2.2,2.6H62l3.3,6.8c0,0,1.6,2.2,2.4,2.4
			c0.8,0.2,10.3,1.3,13.3,0c0,0,1.4-0.4,2.6-2.6c0.9-1.7,2.7-5.1,3.5-6.6h2.5c1.2,0,2.2-1.2,2.2-2.6C91.9,135.1,90.9,134,89.7,134z"
			/>
		<path class="st0" d="M89.7,119.7l-31,0c-1.2,0-2.2,1.2-2.2,2.6c0,1.4,1,2.6,2.2,2.5l30.9,0c1.2,0,2.2-1.2,2.2-2.6
			C91.9,120.8,90.9,119.7,89.7,119.7L89.7,119.7z"/>
		<g>
			<path class="st0" d="M84.7,74.7c0.3-0.6,0.4-1.1,0.2-1.4c-0.2-0.3-0.4-0.5-0.6-0.5c-0.5,0-1.1,0.6-1.4,1.2
				c-0.4,0.9-0.4,2-0.2,2.9C83.7,76.3,84.4,75.5,84.7,74.7L84.7,74.7z"/>
			<path class="st0" d="M71.4,73.5c0.2-0.5,0.3-1.3,0.1-1.7c0-0.1-0.1-0.1-0.2-0.1c-0.1,0-0.2,0-0.5,0.1c-0.6,0.2-1.1,0.8-1.4,1.4
				c-0.6,1.2-0.6,2.4-0.2,3.4c0.1-0.1,0.2-0.2,0.2-0.3C70.2,75.4,71,74.5,71.4,73.5L71.4,73.5z"/>
			<path class="st0" d="M61.6,87.3c4.2,9,7.8,19.1,11.1,30.7h4.7c3-10.9,6.4-20.5,10.2-29.1c-3.1-1.4-5.5-4.1-6.8-7.6
				c-2.1,0.9-4.3,1.2-6.6,1c-1.9-0.2-3.6-0.7-4.9-1.4C68.1,82.4,65.1,85.6,61.6,87.3L61.6,87.3z"/>
			<path class="st0" d="M54.6,81.6c-0.1,0-0.1,0-0.2,0c-0.4,0-0.8,0.2-0.9,0.5c-0.2,0.7,0.2,1.3,0.5,1.7c0.8,1,2.2,1.7,3.3,1.7
				c0.1,0,0.2,0,0.3,0c-0.2-0.5-0.5-1-0.8-1.5C56.2,82.9,55.5,81.8,54.6,81.6L54.6,81.6z"/>
			<path class="st0" d="M94.5,82.5L94.5,82.5c-0.1,0-0.4,0.1-1.2,1.3l-0.1,0.1c-0.5,0.9-0.9,1.8-1.4,2.8c1-0.1,1.9-0.5,2.4-1
				c0.5-0.5,0.7-1.1,0.6-1.9C94.8,82.9,94.6,82.6,94.5,82.5z"/>
			<path class="st0" d="M74,27.9c-23,0-41.7,18.7-41.6,41.8c0,16.8,10,31.2,24.3,37.8v8.1c0,1.4,1.1,2.5,2.5,2.5h10.4
				c-3.2-11.3-6.8-21.1-10.8-29.8c-2.3,0.5-4.4-0.1-6.2-1.7c-1.2-1.1-2.3-2.9-2.2-4.7c0.1-1.1,0.7-2,1.6-2.6
				c0.7-0.4,1.4-0.7,2.2-0.7c2.3,0,4.1,2.1,5,3.9c0.3,0.7,0.7,1.3,1,2c2.4-1.1,4.8-3.1,6.8-5.6c-0.6-0.8-0.9-1.7-1.1-2.8
				c-0.2-1.8,0.6-4.4,2-6c1.5-1.7,3.3-2,5-0.8c0.9,0.7,1.5,1.5,1.6,2.5c0.3,2.3-1.7,4.7-3.1,6.4c-0.1,0.1-0.1,0.2-0.2,0.2
				c0.4,0.2,0.8,0.3,1.3,0.4c2.5,0.5,4.8,0.5,6.4-0.2c0.3-0.1,0.6-0.2,0.9-0.4c-0.1-0.6-0.2-1.2-0.3-1.8c-0.2-2.6,0.5-4.5,2.2-5.9
				c0.7-0.6,1.6-0.9,2.5-0.9c0.9,0,1.6,0.3,2.2,0.9c1,1,1.4,2.2,1.3,3.4c-0.2,2.5-2.5,4.4-3.5,5.1c-0.3,0.2-0.6,0.4-0.9,0.6
				c0.8,2.1,2.3,5.2,5.3,6.4c0.6-1.3,1.2-2.6,1.9-3.8c0-0.1,0.1-0.2,0.2-0.2c0.5-0.8,2-2.7,3.7-2.7c0.6,0,1.2,0.2,1.8,0.7
				c1.7,1.5,1.8,4,1.1,5.8c-0.8,2.3-3.1,3.6-6,3.7c-0.3,0-0.6,0-0.9,0c-3.8,8.3-7.1,17.6-10.1,28.3h8.7c1.4,0,2.5-1.1,2.5-2.5v-8.1
				c14.3-6.6,24.2-21.1,24.2-37.9C115.8,46.4,97.1,27.8,74,27.9L74,27.9z"/>
		</g>
	</g>
</g>
</svg>
